<?xml version="1.0" encoding="utf-8"?>
<!-- Generator: Adobe Illustrator 24.0.3, SVG Export Plug-In . SVG Version: 6.00 Build 0)  -->
<svg version="1.1" id="Layer_1" xmlns="http://www.w3.org/2000/svg" xmlns:xlink="http://www.w3.org/1999/xlink" x="0px" y="0px"
	 viewBox="0 0 861.6 568.6" style="enable-background:new 0 0 861.6 568.6;" xml:space="preserve">
<style type="text/css">
	.st0{fill:none;stroke:#D8DCD9;stroke-width:1.5;stroke-miterlimit:10;}
	.st1{fill:none;stroke:#5F6161;stroke-width:1.5;stroke-miterlimit:10;}
	.st2{fill:#FFFFFF;stroke:#5F6161;stroke-width:1.5;stroke-miterlimit:10;}
	.st3{fill:#D8DCD9;}
</style>
<rect x="313.9" y="188" class="st0" width="22.9" height="52.4"/>
<rect x="284.7" y="130.7" class="st0" width="52.4" height="22.9"/>
<rect x="222.8" y="130.7" class="st0" width="25.7" height="93.2"/>
<rect x="415.6" y="283.3" class="st0" width="51.9" height="41.4"/>
<rect x="452.4" y="153.6" class="st0" width="15" height="33"/>
<line class="st0" x1="519" y1="306.9" x2="609.6" y2="306.9"/>
<line class="st0" x1="564.3" y1="274.7" x2="564.3" y2="306.9"/>
<line class="st0" x1="337.1" y1="130.7" x2="379.3" y2="130.7"/>
<rect x="337.1" y="94" class="st0" width="42.2" height="147.1"/>
<rect x="222.8" y="303.9" class="st0" width="39.1" height="126.2"/>
<path class="st0" d="M640.8,183.9c-2.6-0.6-5.3-0.9-8.2-0.9c-12.6,0-22.9,5.9-22.9,13.2c0,7.3,10.3,13.2,22.9,13.2
	c2.9,0,5.7-0.3,8.2-0.9V183.9z"/>
<rect x="467.5" y="240.5" class="st0" width="117.9" height="34.2"/>
<rect x="585.4" y="219" class="st0" width="55.6" height="55.6"/>
<line class="st1" x1="284.7" y1="241.1" x2="384.3" y2="241.1"/>
<polyline class="st1" points="222.8,278.9 222.8,241.1 240.1,241.1 "/>
<polyline class="st1" points="274.1,430 222.8,430 222.8,312.1 "/>
<line class="st1" x1="467.5" y1="430" x2="447.2" y2="430"/>
<path class="st1" d="M467.5,245.1"/>
<polyline class="st1" points="337.1,241.1 337.1,94 467.5,94 467.5,106.5 "/>
<line class="st1" x1="467.5" y1="150.6" x2="467.5" y2="176.4"/>
<polyline class="st1" points="467.5,189.4 467.5,176.4 641,176.4 641,274.7 467.5,274.7 467.5,233.7 "/>
<polyline class="st1" points="512.9,430 467.5,430 467.5,415.9 "/>
<polyline class="st1" points="337.1,130.7 222.8,130.7 222.8,241.1 "/>
<rect x="295.8" y="244.9" class="st0" width="83.5" height="15.2"/>
<rect x="297.5" y="379.7" class="st0" width="121.9" height="43.6"/>
<rect x="467.5" y="274.7" class="st0" width="27.1" height="77.7"/>
<rect x="519" y="274.7" class="st0" width="90.7" height="107.1"/>
<rect x="625.2" y="274.7" class="st0" width="15.8" height="32.3"/>
<rect x="625.2" y="374" class="st0" width="15.8" height="49.3"/>
<circle class="st0" cx="531" cy="411.2" r="12.1"/>
<rect x="220.5" y="278.9" class="st2" width="4.6" height="33.1"/>
<rect x="274.1" y="427.7" class="st1" width="173" height="4.6"/>
<rect x="513" y="427.7" class="st1" width="103.1" height="4.6"/>
<rect x="569.6" y="401.6" class="st0" width="40" height="21.7"/>
<polyline class="st1" points="467.5,371.5 467.5,274.7 641,274.7 641,430 616.1,430 "/>
<path class="st0" d="M368.1,233.3H352c-2.1,0-3.9-1.7-3.9-3.9v-16.1c0-2.1,1.7-3.9,3.9-3.9h16.1c2.1,0,3.9,1.7,3.9,3.9v16.1
	C372,231.5,370.3,233.3,368.1,233.3z"/>
<rect x="308.6" y="348.2" class="st0" width="70.7" height="18.7"/>
<path class="st0" d="M267,383.4c8.3,0,15.1,6.8,15.1,15.1s-6.8,15.1-15.1,15.1"/>
<line class="st0" x1="270.1" y1="383.7" x2="270.1" y2="413.6"/>
<rect x="308.6" y="379.7" class="st0" width="99.5" height="29.9"/>
<line class="st0" x1="358.3" y1="379.7" x2="358.3" y2="422.9"/>
<path class="st0" d="M420.5,279.4c0-8.3,6.8-15.1,15.1-15.1c8.3,0,15.1,6.8,15.1,15.1"/>
<line class="st0" x1="420.8" y1="276.3" x2="450.6" y2="276.3"/>
<line class="st0" x1="456.4" y1="283.3" x2="456.4" y2="324.7"/>
<path class="st0" d="M565.8,266.8h-21.9c-2.1,0-3.9-1.7-3.9-3.9v-12.2c0-2.1,1.7-3.9,3.9-3.9h21.9c2.1,0,3.9,1.7,3.9,3.9v12.2
	C569.6,265.1,567.9,266.8,565.8,266.8z"/>
<circle class="st3" cx="359.8" cy="225.6" r="1.8"/>
<circle class="st3" cx="554.8" cy="260.4" r="1.8"/>
<rect x="345.3" y="154.1" class="st0" width="29.8" height="29.8"/>
</svg>
